<?xml version="1.0" encoding="utf-8"?>
<!-- Generator: Adobe Illustrator 16.1.0, SVG Export Plug-In . SVG Version: 6.00 Build 0)  -->
<!DOCTYPE svg PUBLIC "-//W3C//DTD SVG 1.1//EN" "http://www.w3.org/Graphics/SVG/1.1/DTD/svg11.dtd">
<svg version="1.1" id="Layer_1" xmlns="http://www.w3.org/2000/svg" xmlns:xlink="http://www.w3.org/1999/xlink" x="0px" y="0px"
	 width="512px" height="512px" viewBox="0 0 512 512" enable-background="new 0 0 512 512" xml:space="preserve">
<g>
</g>
<path d="M447.522,128h-63.551c0-7.155,0-12.669,0-16.039C383.971,80,352,80,352,80H160c0,0-31.961,0-31.961,31.961
	c0,3.37,0,8.884,0,16.039H64c0,0-31.961,0-31.961,31.961s0,256.078,0,256.078S32.038,448,64,448c15.286,0,369.601,0,383.521,0
	c31.962,0,31.971-31.962,31.971-31.962s0-224.116,0-256.077S447.522,128,447.522,128z M256,384c-61.856,0-112-50.145-112-112
	c0-61.856,50.144-112,112-112c61.854,0,112,50.144,112,112C368,333.855,317.856,384,256,384z"/>
<circle cx="256" cy="272" r="71.625"/>
</svg>
