<?xml version="1.0" encoding="utf-8"?>
<!-- Generator: Adobe Illustrator 16.1.0, SVG Export Plug-In . SVG Version: 6.00 Build 0)  -->
<!DOCTYPE svg PUBLIC "-//W3C//DTD SVG 1.1//EN" "http://www.w3.org/Graphics/SVG/1.1/DTD/svg11.dtd">
<svg version="1.1" id="Layer_1" xmlns="http://www.w3.org/2000/svg" xmlns:xlink="http://www.w3.org/1999/xlink" x="0px" y="0px"
	 width="512px" height="512px" viewBox="0 0 512 512" enable-background="new 0 0 512 512" xml:space="preserve">
<g>
</g>
<path d="M400,226.195V408c0,4.411-3.59,8-8,8H88c-4.411,0-8-3.589-8-8V104c0-4.411,3.589-8,8-8h245.799l48.002-48H88
	c-30.878,0-56,25.122-56,56v304c0,30.879,25.122,56,56,56h304c30.879,0,56-25.121,56-56V178.195L400,226.195z"/>
<polygon points="224,357.033 101.484,234.517 154.517,181.483 224,250.967 426.484,48.483 479.517,101.517 "/>
</svg>
