<?xml version="1.0" encoding="utf-8"?>
<!-- Generator: Adobe Illustrator 16.1.0, SVG Export Plug-In . SVG Version: 6.00 Build 0)  -->
<!DOCTYPE svg PUBLIC "-//W3C//DTD SVG 1.1//EN" "http://www.w3.org/Graphics/SVG/1.1/DTD/svg11.dtd">
<svg version="1.1" id="Layer_1" xmlns="http://www.w3.org/2000/svg" xmlns:xlink="http://www.w3.org/1999/xlink" x="0px" y="0px"
	 width="512px" height="512px" viewBox="0 0 512 512" enable-background="new 0 0 512 512" xml:space="preserve">
<g>
</g>
<path fill="none" stroke="#000000" stroke-width="16" d="M256.008,96.001"/>
<path fill="none" stroke="#000000" stroke-width="16" d="M256.008,96.001"/>
<path fill="none" stroke="#000000" stroke-width="16" d="M256.496,97.401"/>
<path fill="none" stroke="#000000" stroke-width="16" d="M256.496,97.401"/>
<path d="M420.979,297.9l57.565-3.279l-0.016-77.654l-57.315-3.233c-3.969-15.82-10.217-31.186-18.773-45.561l38.146-42.745
	l-54.92-54.901L342.936,108.7c-14.376-8.561-29.74-14.816-45.565-18.765l-3.248-57.304l-77.662,0.016l-3.233,57.569
	c-15.692,4.035-30.909,10.313-45.152,18.87l-43.145-38.512l-54.891,54.92l38.745,43.364c-8.358,14.192-14.461,29.324-18.362,44.891
	l-58.291,3.303l0.02,77.654l58.544,3.311c3.979,15.424,10.112,30.41,18.469,44.455l-39.072,43.77l54.93,54.912l43.758-39.096
	c14.045,8.347,29.036,14.481,44.463,18.438l3.326,58.573l77.654-0.031l3.287-58.305c15.556-3.902,30.698-10.021,44.853-18.368
	l43.398,38.73l54.89-54.925l-38.527-43.131C410.673,328.805,416.948,313.572,420.979,297.9z M256,336.403
	c-44.404,0-80.404-35.999-80.404-80.403s36-80.404,80.404-80.404s80.404,36,80.404,80.404S300.405,336.403,256,336.403z"/>
</svg>
