<?xml version="1.0" encoding="utf-8"?>
<!-- Generator: Adobe Illustrator 16.0.0, SVG Export Plug-In . SVG Version: 6.00 Build 0)  -->
<!DOCTYPE svg PUBLIC "-//W3C//DTD SVG 1.1//EN" "http://www.w3.org/Graphics/SVG/1.1/DTD/svg11.dtd">
<svg version="1.1" id="Layer_1" xmlns="http://www.w3.org/2000/svg" xmlns:xlink="http://www.w3.org/1999/xlink" x="0px" y="0px"
	 width="512px" height="512px" viewBox="0 0 512 512" enable-background="new 0 0 512 512" xml:space="preserve">
<g>
</g>
<path d="M320,96V32H32v384h160v64h288V96H320z M448,448H224V321.723c-11.479-4.121-22.149-8.822-32-13.891V384H64V64h224v32h-96
	v129.685c9.933,2.358,20.617,4.408,32,6.127V128h224V448z"/>
<path d="M320,384l96-96l-96-96l0.5,63.5c0,0-181,6-224.5-63.5c0,0,64,128,224,128V384z"/>
</svg>
