<?xml version="1.0" encoding="UTF-8"?>
<!DOCTYPE svg PUBLIC "-//W3C//DTD SVG 1.1//EN" "http://www.w3.org/Graphics/SVG/1.1/DTD/svg11.dtd">
<svg version="1.1" xmlns="http://www.w3.org/2000/svg" xmlns:xlink="http://www.w3.org/1999/xlink" x="0px" y="0px" width="512" height="512" viewBox="0, 0, 512, 512">
  <g id="Layer 1">
    <g>
      <path d="M355.481,72.657 C355.481,72.657 359.663,68.475 401.451,110.263 C443.207,152.019 439.026,156.201 439.026,156.201 L190.801,404.188 C190.801,404.188 194.952,400.037 153.195,358.281 C111.408,316.493 107.257,320.644 107.257,320.644 z" fill="#000000"/>
      <path d="M90.557,337.343 L32.073,479.403 L174.102,420.888 C174.102,420.888 178.252,416.737 136.496,374.98 C94.708,333.193 90.557,337.343 90.557,337.343" fill="#000000"/>
      <path d="M371.392,56.508 L404.785,23.116 C404.785,23.116 438.209,-10.308 479.997,31.479 C521.754,73.236 488.329,106.66 488.329,106.66 L454.937,140.053 C454.937,140.053 459.119,135.871 417.362,94.114 C375.574,52.326 371.392,56.508 371.392,56.508" fill="#000000"/>
    </g>
  </g>
  <defs/>
</svg>
