<?xml version="1.0" encoding="utf-8"?>
<!-- Generator: Adobe Illustrator 16.1.0, SVG Export Plug-In . SVG Version: 6.00 Build 0)  -->
<!DOCTYPE svg PUBLIC "-//W3C//DTD SVG 1.1//EN" "http://www.w3.org/Graphics/SVG/1.1/DTD/svg11.dtd">
<svg version="1.1" id="Layer_1" xmlns="http://www.w3.org/2000/svg" xmlns:xlink="http://www.w3.org/1999/xlink" x="0px" y="0px"
	 width="512px" height="512px" viewBox="0 0 512 512" enable-background="new 0 0 512 512" xml:space="preserve">
<g>
</g>
<path d="M479.456,434.416L352.288,307.248c19.562-28.324,31.058-62.623,31.058-99.573C383.342,110.806,304.531,32,207.671,32
	C110.806,32,32,110.806,32,207.671c0,96.86,78.806,175.671,175.671,175.671c36.858,0,71.089-11.438,99.365-30.912l127.207,127.199
	L479.456,434.416z M207.671,319.395c-61.605,0-111.725-50.119-111.725-111.724c0-61.605,50.119-111.724,111.725-111.724
	c61.604,0,111.724,50.118,111.724,111.724C319.395,269.275,269.277,319.395,207.671,319.395z"/>
<path opacity="0.2" fill="#FFFFFF" d="M207.671,311.83c57.373,0,103.883-46.51,103.883-103.883s-46.51-103.883-103.883-103.883
	c0,0,32,39.883,32,103.883S207.671,311.83,207.671,311.83z"/>
</svg>
