<?xml version="1.0" encoding="utf-8"?>
<!-- Generator: Adobe Illustrator 16.1.0, SVG Export Plug-In . SVG Version: 6.00 Build 0)  -->
<!DOCTYPE svg PUBLIC "-//W3C//DTD SVG 1.1//EN" "http://www.w3.org/Graphics/SVG/1.1/DTD/svg11.dtd">
<svg version="1.1" id="Layer_1" xmlns="http://www.w3.org/2000/svg" xmlns:xlink="http://www.w3.org/1999/xlink" x="0px" y="0px"
	 width="512px" height="512px" viewBox="0 0 512 512" enable-background="new 0 0 512 512" xml:space="preserve">
<g>
</g>
<path d="M255.707,480H373.91v-19.496l-32.406-2.363c-20.5-2.977-34.203-6.055-42.617-18.141c-5.102-7.414-11.18-24.422-11.18-50.93
	V80.5h57.16c22.828,1.039,39.648,2.768,49.277,4.82c17.289,3.711,26.461,10.607,33.254,24.191
	c6.801,13.604,9.355,30.879,10.957,52.254h10.953L447.707,32h-192h-192l-0.82,129.766h10.961
	c1.631-21.383,4.156-38.65,10.959-52.254c6.801-13.584,15.969-20.48,33.26-24.191c9.641-2.053,26.457-3.781,49.277-4.82h56.363
	v308.57c0,26.5-6.078,43.508-11.211,50.926c-8.383,12.082-22.078,15.16-42.562,18.145l-32.438,2.359V480H255.707z"/>
</svg>
