<?xml version="1.0" encoding="UTF-8"?>
<!DOCTYPE svg PUBLIC "-//W3C//DTD SVG 1.1//EN" "http://www.w3.org/Graphics/SVG/1.1/DTD/svg11.dtd">
<svg version="1.1" xmlns="http://www.w3.org/2000/svg" xmlns:xlink="http://www.w3.org/1999/xlink" x="0px" y="0px" width="512" height="512" viewBox="0, 0, 512, 512">
  <g id="Layer 1">
    <path d="M224,96" fill-opacity="0" stroke="#000000" stroke-width="16"/>
    <path d="M43.006,455 C30.689,455 22.991,441.667 29.149,431 L241.635,62.965 C247.793,52.298 263.189,52.298 269.347,62.965 L481.833,431 C487.991,441.667 480.293,455 467.976,455 z M70.719,423 L440.263,423 L255.491,102.965 z" fill="#000000"/>
    <path d="M241.506,300.349 L237.438,239.452 Q236.294,221.653 236.294,213.898 Q236.294,203.346 241.824,197.434 Q247.354,191.523 256.381,191.523 Q267.314,191.523 271.001,199.087 Q274.688,206.651 274.688,220.89 Q274.688,229.281 273.798,237.926 L268.331,300.603 Q267.441,311.791 264.517,317.766 Q261.593,323.741 254.855,323.741 Q247.99,323.741 245.32,317.957 Q242.651,312.172 241.506,300.349 z M255.618,384.002 Q247.863,384.002 242.078,378.98 Q236.294,373.959 236.294,364.932 Q236.294,357.05 241.824,351.52 Q247.354,345.989 255.364,345.989 Q263.373,345.989 269.031,351.52 Q274.688,357.05 274.688,364.932 Q274.688,373.831 268.967,378.917 Q263.246,384.002 255.618,384.002 z" fill="#000000"/>
  </g>
  <defs/>
</svg>
